<svg width="21" height="20" viewBox="0 0 21 20" fill="none" xmlns="http://www.w3.org/2000/svg">
<path d="M11.125 7H9.125V5H11.125M11.125 15H9.125V9H11.125M10.125 0C8.81178 0 7.51142 0.258658 6.29817 0.761205C5.08491 1.26375 3.98252 2.00035 3.05393 2.92893C1.17857 4.8043 0.125 7.34784 0.125 10C0.125 12.6522 1.17857 15.1957 3.05393 17.0711C3.98252 17.9997 5.08491 18.7362 6.29817 19.2388C7.51142 19.7413 8.81178 20 10.125 20C12.7772 20 15.3207 18.9464 17.1961 17.0711C19.0714 15.1957 20.125 12.6522 20.125 10C20.125 8.68678 19.8663 7.38642 19.3638 6.17317C18.8612 4.95991 18.1247 3.85752 17.1961 2.92893C16.2675 2.00035 15.1651 1.26375 13.9518 0.761205C12.7386 0.258658 11.4382 0 10.125 0Z" fill="#BDBDBD"/>
</svg>
