<svg width="606" height="306" viewBox="0 0 606 306" fill="none" xmlns="http://www.w3.org/2000/svg">
<g clip-path="url(#clip0_101_1281)">
<path d="M189.395 114.809C189.737 113.551 191.03 112.804 192.291 113.135C193.552 113.476 194.3 114.767 193.968 116.025C193.626 117.284 192.333 118.03 191.062 117.7C189.801 117.358 189.053 116.068 189.384 114.809" fill="#E53750"/>
<path d="M256.534 85.8432C259.366 83.6675 263.426 84.2008 265.606 87.027C267.775 89.8533 267.241 93.906 264.409 96.0817C261.578 98.2573 257.517 97.7241 255.337 94.8872C253.168 92.0609 253.691 88.0082 256.534 85.8432Z" fill="#26BCEC"/>
<path d="M197.837 104.272C198.51 102.651 200.37 101.872 202.004 102.555C203.629 103.227 204.409 105.083 203.725 106.714C203.052 108.336 201.182 109.103 199.557 108.431C197.933 107.76 197.153 105.904 197.837 104.272Z" fill="#FECC38"/>
<path d="M223.248 89.3838C224.872 87.2721 227.896 86.8775 230.023 88.4986C232.139 90.1091 232.534 93.1379 230.91 95.2496C229.286 97.3613 226.261 97.7666 224.146 96.1455C222.03 94.5244 221.624 91.4955 223.248 89.3838Z" fill="#00ACB0"/>
<path d="M209.324 95.6443C210.435 93.7353 212.882 93.074 214.795 94.1832C216.718 95.2924 217.37 97.7347 216.27 99.6437C215.169 101.553 212.711 102.214 210.798 101.105C208.875 100.006 208.223 97.5533 209.334 95.6443M239.169 85.9924C241.381 83.7848 244.95 83.7848 247.162 85.9924C249.364 88.1894 249.364 91.7622 247.162 93.9592C244.961 96.1669 241.381 96.1669 239.18 93.9592C236.968 91.7622 236.968 88.1894 239.18 85.9924M179.243 114.095C179.243 112.794 180.301 111.738 181.615 111.738C182.919 111.738 183.977 112.794 183.977 114.106C183.977 115.417 182.919 116.473 181.605 116.462C180.301 116.462 179.233 115.407 179.243 114.095Z" fill="#233D8D"/>
<path d="M255.048 67.35C257.891 64.5025 262.507 64.5025 265.36 67.35C268.202 70.1869 268.202 74.7942 265.349 77.6418C262.528 80.4787 257.891 80.4787 255.059 77.6418C252.206 74.7942 252.206 70.1976 255.059 67.3607" fill="#00ACB0"/>
<path d="M236.563 68.7791C238.732 65.9528 242.793 65.4089 245.625 67.5846C248.456 69.7496 248.991 73.8023 246.811 76.6392C244.642 79.4655 240.581 80.0094 237.738 77.8337C234.907 75.658 234.372 71.616 236.552 68.7897" fill="#FECC38"/>
<path d="M184.641 101.734C184.865 99.9957 186.468 98.7585 188.22 98.9932C189.973 99.2171 191.202 100.817 190.967 102.555C190.742 104.294 189.139 105.531 187.387 105.296C185.645 105.072 184.416 103.472 184.641 101.723" fill="#00ACB0"/>
<path d="M205.328 80.7986C206.354 78.3456 209.175 77.1724 211.632 78.1856C214.101 79.1988 215.266 82.025 214.24 84.478C213.225 86.9416 210.393 88.1041 207.935 87.0909C205.477 86.0671 204.302 83.2515 205.317 80.7986" fill="#E53750"/>
<path d="M193.499 90.4291C194.076 88.2961 196.277 87.0269 198.403 87.6028C200.551 88.1681 201.812 90.3651 201.235 92.4981C200.669 94.6311 198.457 95.9003 196.33 95.3243C194.193 94.7591 192.922 92.5621 193.499 90.4291ZM219.818 73.4077C221.378 70.7094 224.829 69.7815 227.533 71.3386C230.236 72.8957 231.155 76.3405 229.595 79.0388C228.035 81.7371 224.584 82.6649 221.88 81.0972C219.177 79.5401 218.247 76.0952 219.807 73.4077M169.199 116.036C168.857 114.777 169.605 113.476 170.877 113.146C172.138 112.804 173.441 113.562 173.773 114.82C174.114 116.079 173.356 117.38 172.095 117.71C170.834 118.052 169.53 117.305 169.199 116.036Z" fill="#26BCEC"/>
<path d="M230.333 51.2881C232.342 47.8113 236.798 46.6168 240.292 48.6218C243.776 50.6269 244.962 55.0742 242.953 58.5617C240.955 62.0278 236.488 63.233 233.005 61.2173C229.51 59.2122 228.314 54.7649 230.333 51.2881Z" fill="#E53750"/>
<path d="M212.852 57.442C214.209 54.1465 217.991 52.5788 221.293 53.9439C224.585 55.309 226.155 59.0844 224.788 62.3799C223.43 65.6754 219.637 67.2432 216.335 65.8674C213.033 64.5023 211.462 60.7269 212.841 57.442" fill="#00ACB0"/>
<path d="M171.251 102.694C171.016 100.956 172.245 99.3558 173.998 99.1318C175.75 98.8972 177.342 100.124 177.577 101.873C177.802 103.611 176.573 105.211 174.831 105.446C173.079 105.68 171.487 104.454 171.251 102.705" fill="#E53750"/>
<path d="M185.794 77.1298C186.146 74.4956 188.561 72.6398 191.211 72.9811C193.861 73.3224 195.71 75.754 195.368 78.3883C195.026 81.0226 192.601 82.889 189.95 82.537C187.311 82.1957 185.441 79.7748 185.794 77.1298Z" fill="#233D8D"/>
<path d="M176.872 89.4905C176.872 87.2828 178.667 85.4911 180.879 85.4911C183.102 85.4911 184.886 87.2828 184.886 89.4905C184.886 91.6982 183.091 93.4899 180.879 93.4899C178.667 93.4899 176.872 91.6982 176.872 89.4905ZM197.88 66.2513C198.692 63.2438 201.781 61.4627 204.805 62.2626C207.818 63.0625 209.603 66.1553 208.79 69.1629C207.989 72.1704 204.89 73.9622 201.877 73.1516C198.863 72.3411 197.068 69.2589 197.88 66.2513ZM160.052 120.494C159.401 119.363 159.785 117.924 160.918 117.262C162.051 116.612 163.493 116.996 164.156 118.126C164.808 119.257 164.423 120.696 163.29 121.358C162.158 122.008 160.715 121.624 160.052 120.494Z" fill="#FECC38"/>
<path d="M202.304 42.1697C203.341 38.2876 207.337 35.9839 211.238 37.0184C215.117 38.0636 217.425 42.0417 216.388 45.9344C215.362 49.8058 211.355 52.1095 207.476 51.075C203.587 50.0298 201.268 46.0517 202.315 42.1697" fill="#233D8D"/>
<path d="M187.002 52.6215C187.461 49.0914 190.71 46.5957 194.257 47.065C197.794 47.5343 200.284 50.7764 199.825 54.3066C199.365 57.8367 196.117 60.3323 192.569 59.8631C189.032 59.3938 186.531 56.1623 187.012 52.6215" fill="#E53750"/>
<path d="M158.555 107.088C157.882 105.467 158.651 103.6 160.276 102.929C161.9 102.257 163.77 103.024 164.443 104.646C165.116 106.267 164.347 108.133 162.712 108.805C161.088 109.477 159.228 108.709 158.555 107.088Z" fill="#233D8D"/>
<path d="M165.971 78.6229C165.629 75.9886 167.489 73.5677 170.128 73.2157C172.767 72.8638 175.193 74.7302 175.546 77.3644C175.898 79.9987 174.039 82.4197 171.389 82.7716C168.749 83.1236 166.313 81.2678 165.971 78.6229Z" fill="#26BCEC"/>
<path d="M160.554 92.8714C159.988 90.7383 161.249 88.5413 163.386 87.9761C165.523 87.4002 167.714 88.6693 168.301 90.8023C168.878 92.9353 167.607 95.1323 165.47 95.6976C163.333 96.2735 161.131 95.0044 160.565 92.8714M174.83 64.9929C174.83 61.8787 177.363 59.3511 180.483 59.3511C183.603 59.3511 186.125 61.868 186.125 64.9822C186.125 68.0964 183.603 70.624 180.483 70.6134C177.363 70.6134 174.83 68.0964 174.83 64.9822M152.358 127.149C151.439 126.221 151.439 124.728 152.358 123.811C153.277 122.883 154.784 122.883 155.703 123.811C156.633 124.739 156.633 126.232 155.703 127.149C154.773 128.077 153.277 128.077 152.358 127.149Z" fill="#00ACB0"/>
<path d="M172.854 40.5911C172.854 36.5704 176.113 33.3069 180.141 33.3069C184.159 33.3069 187.418 36.5597 187.429 40.5911C187.44 44.5905 184.17 47.8647 180.141 47.854C176.113 47.854 172.843 44.6118 172.854 40.5911Z" fill="#26BCEC"/>
<path d="M160.788 54.6476C160.318 51.1175 162.808 47.8753 166.356 47.4061C169.893 46.9368 173.141 49.4324 173.611 52.9626C174.082 56.4927 171.592 59.7455 168.044 60.2041C164.496 60.6627 161.259 58.1884 160.788 54.6476Z" fill="#233D8D"/>
<path d="M121.177 21.2128C120.707 17.6826 123.197 14.4405 126.744 13.9712C130.281 13.5019 133.53 15.9869 134 19.5277C134.47 23.0578 131.98 26.3107 128.433 26.7693C124.885 27.2279 121.647 24.7536 121.177 21.2128Z" fill="#00ACB0"/>
<path d="M147.432 114.596C146.364 113.21 146.62 111.205 148.02 110.138C149.42 109.072 151.418 109.328 152.487 110.725C153.555 112.111 153.299 114.116 151.899 115.183C150.499 116.249 148.501 115.993 147.432 114.596Z" fill="#26BCEC"/>
<path d="M147.218 85.1926C146.203 82.729 147.368 79.9134 149.836 78.9003C152.294 77.8764 155.126 79.0496 156.141 81.5132C157.167 83.9662 156.002 86.7924 153.533 87.8056C151.076 88.8294 148.244 87.6563 147.229 85.2033" fill="#FECC38"/>
<path d="M71.7766 38.6074C70.7615 36.1438 71.9262 33.3282 74.3947 32.3151C76.8524 31.2912 79.6841 32.4644 80.6993 34.928C81.7251 37.381 80.5604 40.2072 78.092 41.2204C75.6235 42.2442 72.8025 41.0711 71.7766 38.6181M83.8516 302.653C82.8364 300.189 84.0012 297.374 86.4696 296.361C88.938 295.337 91.7591 296.51 92.7743 298.973C93.8001 301.426 92.6246 304.253 90.1669 305.266C87.6985 306.29 84.8774 305.117 83.8623 302.664" fill="#233D8D"/>
<path d="M145.68 100.358C144.58 98.4491 145.232 95.9961 147.144 94.8976C149.068 93.7884 151.515 94.4497 152.626 96.3587C153.738 98.2678 153.075 100.721 151.152 101.819C149.239 102.928 146.781 102.267 145.68 100.358ZM105.352 6.00435C104.252 4.0953 104.903 1.64234 106.816 0.543839C108.74 -0.565327 111.187 0.0959064 112.298 2.00495C113.409 3.914 112.747 6.36696 110.834 7.46546C108.921 8.57463 106.463 7.91339 105.363 6.00435M152.252 69.7494C151.44 66.7419 153.225 63.649 156.249 62.8384C159.262 62.0279 162.35 63.8196 163.162 66.8272C163.975 69.8347 162.179 72.9276 159.166 73.7275C156.152 74.538 153.054 72.7569 152.252 69.7494ZM146.663 135.606C145.531 134.956 145.146 133.505 145.798 132.375C146.45 131.244 147.903 130.86 149.036 131.511C150.168 132.161 150.564 133.612 149.901 134.742C149.249 135.873 147.807 136.257 146.663 135.606Z" fill="#E53750"/>
<path d="M144.002 46.681C142.955 42.7989 145.263 38.8102 149.153 37.765C153.032 36.7305 157.028 39.0235 158.076 42.9162C159.123 46.777 156.815 50.7764 152.925 51.8109C149.035 52.856 145.039 50.5631 144.002 46.681Z" fill="#FECC38"/>
<path d="M135.988 63.3719C134.62 60.0764 136.18 56.3009 139.482 54.9358C142.784 53.5707 146.567 55.1385 147.934 58.434C149.302 61.7188 147.742 65.5049 144.44 66.87C141.138 68.2352 137.355 66.6781 135.998 63.3719" fill="#26BCEC"/>
<path d="M138.638 124.728C137.238 123.661 136.971 121.667 138.05 120.27C139.119 118.873 141.117 118.606 142.517 119.683C143.906 120.75 144.173 122.755 143.104 124.141C142.025 125.538 140.038 125.794 138.638 124.728Z" fill="#FECC38"/>
<path d="M130.806 96.3801C129.182 94.2684 129.577 91.2502 131.693 89.6184C133.808 87.9973 136.843 88.4026 138.457 90.5143C140.081 92.626 139.686 95.6549 137.57 97.2653C135.454 98.8864 132.419 98.4918 130.795 96.3801" fill="#00ACB0"/>
<path d="M133.252 111.429C131.692 109.861 131.681 107.333 133.252 105.776C134.812 104.208 137.356 104.208 138.916 105.776C140.487 107.333 140.487 109.872 138.916 111.429C137.356 112.996 134.812 112.996 133.252 111.429Z" fill="#233D8D"/>
<path d="M47.2415 80.7453C45.6814 79.1775 45.6707 76.6499 47.2415 75.0928C48.8016 73.5251 51.3448 73.5251 52.905 75.0928C54.4758 76.6499 54.4758 79.1882 52.905 80.7453C51.3448 82.3131 48.8016 82.3131 47.2415 80.7453Z" fill="#E53750"/>
<path d="M131.638 80.1586C130.078 77.4603 130.997 74.0155 133.711 72.4584C136.404 70.9013 139.866 71.8292 141.426 74.5168C142.986 77.2043 142.067 80.6598 139.364 82.2169C136.66 83.774 133.209 82.8568 131.649 80.1586M143.328 145.215C142.067 144.874 141.319 143.584 141.651 142.325C141.993 141.067 143.286 140.32 144.547 140.651C145.807 140.992 146.555 142.283 146.224 143.552C145.882 144.81 144.589 145.557 143.328 145.226" fill="#233D8D"/>
<path d="M117.705 60.0122C115.685 56.5354 116.882 52.0774 120.365 50.0724C123.849 48.0674 128.305 49.2618 130.325 52.7493C132.334 56.2048 131.147 60.6735 127.653 62.6785C124.159 64.6942 119.714 63.4997 117.705 60.0229" fill="#00ACB0"/>
<path d="M114.306 78.2069C112.126 75.3807 112.661 71.328 115.492 69.1523C118.324 66.9873 122.385 67.5206 124.565 70.3468C126.745 73.173 126.21 77.2258 123.368 79.4014C120.536 81.5664 116.475 81.0438 114.306 78.2069Z" fill="#FECC38"/>
<path d="M132.771 136.79C131.147 136.118 130.367 134.262 131.051 132.631C131.724 131.01 133.583 130.231 135.218 130.903C136.843 131.575 137.623 133.431 136.939 135.062C136.266 136.683 134.406 137.451 132.771 136.779" fill="#00ACB0"/>
<path d="M117.854 111.429C115.738 109.808 115.343 106.789 116.967 104.667C118.591 102.555 121.615 102.161 123.731 103.782C125.847 105.392 126.253 108.421 124.629 110.533C123.004 112.644 119.97 113.05 117.854 111.429Z" fill="#E53750"/>
<path d="M124.115 125.325C122.202 124.216 121.54 121.774 122.651 119.865C123.762 117.945 126.209 117.294 128.122 118.393C130.035 119.491 130.697 121.944 129.586 123.853C128.485 125.773 126.028 126.424 124.115 125.314M114.444 95.5376C112.232 93.3299 112.232 89.7678 114.444 87.5601C116.645 85.3631 120.225 85.3631 122.426 87.5601C124.628 89.7571 124.638 93.3299 122.426 95.5269C120.225 97.7346 116.645 97.7346 114.444 95.5269M142.601 155.347C141.298 155.347 140.24 154.291 140.24 152.98C140.24 151.678 141.298 150.623 142.612 150.623C143.926 150.623 144.984 151.678 144.973 152.99C144.973 154.302 143.916 155.358 142.601 155.358" fill="#26BCEC"/>
<path d="M89.6437 70.1333C86.7906 67.2964 86.7906 62.6891 89.6437 59.8415C92.4862 57.0046 97.1024 57.0046 99.9556 59.8415C102.798 62.6678 102.798 67.2858 99.9556 70.112C97.1024 72.9596 92.4969 72.9596 89.6544 70.112" fill="#E53750"/>
<path d="M97.1983 98.1398C94.3666 95.9748 93.8216 91.9221 96.0015 89.0958C98.1707 86.2696 102.231 85.7363 105.074 87.9013C107.905 90.0663 108.45 94.1191 106.271 96.956C104.091 99.7822 100.041 100.315 97.209 98.1398" fill="#00ACB0"/>
<path d="M130.228 149.961C128.486 149.737 127.247 148.138 127.482 146.389C127.706 144.65 129.309 143.413 131.051 143.648C132.793 143.872 134.021 145.471 133.797 147.22C133.573 148.959 131.97 150.185 130.217 149.961" fill="#E53750"/>
<path d="M135.582 175.995C133.958 176.667 132.088 175.899 131.415 174.278C130.741 172.657 131.511 170.79 133.135 170.118C134.759 169.447 136.629 170.214 137.302 171.836C137.976 173.457 137.206 175.312 135.582 175.995Z" fill="#26BCEC"/>
<path d="M109.241 129.314C106.783 128.29 105.608 125.474 106.623 123.021C107.638 120.558 110.47 119.395 112.927 120.419C115.385 121.432 116.561 124.259 115.535 126.712C114.52 129.165 111.688 130.338 109.23 129.325" fill="#233D8D"/>
<path d="M118.9 141.12C116.763 140.544 115.492 138.358 116.069 136.225C116.635 134.081 118.836 132.823 120.974 133.388C123.111 133.953 124.382 136.15 123.805 138.283C123.239 140.416 121.038 141.685 118.9 141.11" fill="#FECC38"/>
<path d="M76.0825 106.203C73.379 104.646 72.4494 101.201 74.0202 98.5025C75.5803 95.8042 79.0318 94.887 81.7353 96.4441C84.4388 98.0012 85.3685 101.446 83.7977 104.144C82.2376 106.843 78.786 107.77 76.0932 106.213" fill="#233D8D"/>
<path d="M144.547 165.351C143.286 165.692 141.982 164.946 141.651 163.677C141.309 162.418 142.057 161.117 143.328 160.786C144.589 160.445 145.893 161.202 146.224 162.461C146.556 163.719 145.818 165.02 144.547 165.351ZM16.3383 104.347C12.8547 102.342 11.6472 97.8946 13.6668 94.4071C15.6757 90.9303 20.1317 89.7465 23.626 91.7515C27.0989 93.7459 28.3064 98.2039 26.2868 101.681C24.2778 105.168 19.8218 106.363 16.3383 104.347Z" fill="#FECC38"/>
<path d="M85.8504 121.806C82.5485 120.451 80.9777 116.676 82.3455 113.369C83.7133 110.074 87.496 108.517 90.798 109.882C94.0999 111.236 95.6707 115.023 94.2922 118.318C92.9244 121.614 89.1416 123.181 85.8504 121.806Z" fill="#E53750"/>
<path d="M131.19 163.325C129.448 163.559 127.845 162.333 127.61 160.584C127.375 158.845 128.604 157.246 130.356 157.011C132.098 156.776 133.701 158.003 133.936 159.752C134.171 161.501 132.942 163.09 131.19 163.325Z" fill="#233D8D"/>
<path d="M105.565 148.809C102.926 148.457 101.067 146.047 101.409 143.402C101.751 140.757 104.187 138.912 106.826 139.254C109.466 139.595 111.336 142.016 110.983 144.65C110.641 147.284 108.216 149.151 105.565 148.799" fill="#26BCEC"/>
<path d="M117.949 157.715C115.737 157.715 113.942 155.923 113.942 153.716C113.942 151.508 115.737 149.716 117.949 149.716C120.161 149.716 121.956 151.508 121.956 153.716C121.956 155.923 120.161 157.715 117.949 157.715ZM94.6647 136.747C91.6513 135.937 89.8668 132.855 90.6682 129.837C91.4804 126.829 94.5686 125.048 97.582 125.848C100.595 126.648 102.391 129.741 101.578 132.748C100.766 135.756 97.6781 137.547 94.6647 136.737M149.013 174.491C147.88 175.142 146.437 174.758 145.775 173.627C145.123 172.497 145.508 171.057 146.641 170.396C147.773 169.745 149.216 170.129 149.878 171.26C150.53 172.39 150.145 173.83 149.013 174.491Z" fill="#00ACB0"/>
<path d="M70.5371 132.332C66.6475 131.297 64.3393 127.309 65.3758 123.427C66.4231 119.555 70.4089 117.252 74.3092 118.286C78.1881 119.31 80.4963 123.309 79.4597 127.181C78.4232 131.073 74.4267 133.377 70.5371 132.332Z" fill="#26BCEC"/>
<path d="M81.0203 147.605C77.4726 147.146 74.9828 143.904 75.4423 140.363C75.9125 136.833 79.161 134.337 82.698 134.806C86.235 135.265 88.7355 138.518 88.2653 142.048C87.7951 145.578 84.5573 148.074 81.0096 147.605" fill="#233D8D"/>
<path d="M4.40235 175.995C2.77811 176.667 0.908095 175.899 0.234889 174.278C-0.438317 172.657 0.331061 170.79 1.9553 170.118C3.57955 169.447 5.44956 170.214 6.12277 171.836C6.79598 173.457 6.0266 175.312 4.40235 175.995Z" fill="#00ACB0"/>
<path d="M28.4883 155.23C26.864 155.902 24.994 155.134 24.3208 153.513C23.6476 151.892 24.417 150.025 26.0412 149.353C27.6655 148.681 29.5355 149.449 30.2087 151.081C30.8819 152.702 30.1125 154.558 28.4883 155.241M117.95 283.029C116.326 283.701 114.456 282.933 113.782 281.312C113.109 279.691 113.879 277.825 115.503 277.153C117.127 276.481 118.997 277.249 119.67 278.87C120.344 280.491 119.574 282.357 117.95 283.029Z" fill="#E53750"/>
<path d="M107.072 168.593C104.432 168.935 102.007 167.09 101.654 164.445C101.301 161.8 103.171 159.389 105.811 159.037C108.45 158.686 110.887 160.541 111.229 163.186C111.581 165.82 109.722 168.252 107.072 168.593Z" fill="#FECC38"/>
<path d="M121.347 173.99C119.21 174.555 117.009 173.297 116.442 171.164C115.865 169.03 117.137 166.844 119.274 166.258C121.411 165.682 123.613 166.951 124.179 169.084C124.756 171.217 123.484 173.414 121.347 173.979M93.4145 159.741C90.2943 159.741 87.7617 157.224 87.7617 154.099C87.7617 150.985 90.2943 148.468 93.4038 148.468C96.5241 148.468 99.0566 150.996 99.0566 154.099C99.0566 157.214 96.5348 159.741 93.4145 159.741ZM155.702 182.17C154.772 183.087 153.276 183.087 152.357 182.17C151.428 181.253 151.438 179.749 152.357 178.821C153.276 177.893 154.783 177.893 155.702 178.821C156.621 179.749 156.632 181.242 155.702 182.159" fill="#E53750"/>
<path d="M68.9664 161.725C64.9378 161.725 61.668 158.472 61.668 154.451C61.668 150.441 64.9271 147.188 68.9557 147.178C72.9629 147.178 76.2434 150.431 76.2327 154.441C76.2327 158.461 72.9736 161.725 68.9557 161.714" fill="#FECC38"/>
<path d="M83.04 173.766C79.503 174.235 76.2545 171.75 75.7843 168.209C75.3142 164.679 77.8147 161.437 81.3517 160.968C84.8887 160.499 88.1478 162.983 88.6073 166.524C89.0668 170.065 86.5877 173.307 83.04 173.766Z" fill="#26BCEC"/>
<path d="M143.114 187.097C141.725 188.164 139.716 187.908 138.648 186.51C137.568 185.113 137.836 183.119 139.235 182.052C140.625 180.986 142.633 181.242 143.702 182.639C144.781 184.036 144.514 186.031 143.114 187.097Z" fill="#FECC38"/>
<path d="M56.0255 212.693C54.6363 213.76 52.6274 213.504 51.5588 212.107C50.4795 210.71 50.7467 208.715 52.1465 207.649C53.5357 206.582 55.5446 206.838 56.6132 208.235C57.6925 209.632 57.4253 211.627 56.0255 212.693Z" fill="#233D8D"/>
<path d="M113.654 187.31C111.186 188.324 108.365 187.161 107.349 184.697C106.324 182.244 107.499 179.418 109.967 178.405C112.425 177.381 115.257 178.544 116.272 181.007C117.298 183.46 116.123 186.287 113.665 187.3" fill="#00ACB0"/>
<path d="M48.1072 139.232C45.6388 140.245 42.8177 139.083 41.8026 136.619C40.7768 134.166 41.9522 131.34 44.4206 130.327C46.8784 129.303 49.7101 130.466 50.7252 132.929C51.7511 135.393 50.5756 138.208 48.1179 139.232M128.849 188.835C126.936 189.934 124.479 189.283 123.378 187.374C122.267 185.455 122.929 183.012 124.842 181.914C126.755 180.805 129.213 181.466 130.313 183.375C131.424 185.284 130.762 187.737 128.849 188.835ZM98.1809 182.298C95.1675 183.108 92.0686 181.317 91.2565 178.309C90.4444 175.301 92.2396 172.219 95.253 171.409C98.2664 170.598 101.365 172.379 102.167 175.397C102.979 178.405 101.194 181.498 98.1809 182.298ZM164.155 187.876C163.503 189.006 162.061 189.39 160.917 188.739C159.785 188.089 159.4 186.638 160.052 185.508C160.704 184.377 162.157 183.994 163.29 184.644C164.422 185.295 164.807 186.745 164.155 187.876Z" fill="#233D8D"/>
<path d="M46.5045 190.521C42.6149 191.566 38.6184 189.262 37.5712 185.38C36.5346 181.509 38.8428 177.52 42.7324 176.475C46.6007 175.43 50.6078 177.733 51.6444 181.615C52.6916 185.497 50.3834 189.486 46.5045 190.521Z" fill="#26BCEC"/>
<path d="M91.7911 198.519C88.4892 199.885 84.7064 198.327 83.3386 195.032C81.9709 191.747 83.5417 187.961 86.8436 186.596C90.1348 185.231 93.9283 186.788 95.2961 190.083C96.6638 193.379 95.1037 197.154 91.7911 198.509" fill="#FECC38"/>
<path d="M153.267 195.874C152.198 197.272 150.189 197.538 148.8 196.461C147.4 195.394 147.133 193.4 148.212 192.003C149.281 190.606 151.29 190.339 152.679 191.416C154.079 192.483 154.335 194.477 153.267 195.874Z" fill="#00ACB0"/>
<path d="M124.864 203.692C122.748 205.313 119.724 204.918 118.089 202.807C116.465 200.695 116.871 197.677 118.986 196.056C121.102 194.435 124.137 194.829 125.751 196.941C127.375 199.053 126.979 202.082 124.864 203.703" fill="#E53750"/>
<path d="M76.2009 264.429C74.0851 266.051 71.061 265.656 69.4261 263.544C67.8018 261.433 68.1972 258.414 70.3237 256.793C72.4395 255.172 75.4742 255.567 77.0878 257.678C78.712 259.79 78.3167 262.819 76.2009 264.429ZM139.942 201.25C138.371 202.807 135.838 202.817 134.278 201.25C132.707 199.693 132.718 197.165 134.278 195.597C135.838 194.04 138.382 194.04 139.942 195.597C141.513 197.154 141.513 199.693 139.942 201.25ZM108.622 202.86C105.918 204.417 102.467 203.5 100.906 200.791C99.3463 198.103 100.276 194.648 102.969 193.102C105.662 191.544 109.124 192.462 110.684 195.16C112.244 197.858 111.325 201.303 108.622 202.86ZM173.805 191.203C173.463 192.462 172.17 193.208 170.909 192.878C169.648 192.547 168.9 191.246 169.232 189.987C169.573 188.729 170.866 187.982 172.138 188.313C173.399 188.654 174.147 189.945 173.816 191.203" fill="#26BCEC"/>
<path d="M88.4246 216.757C84.941 218.772 80.4743 217.578 78.4654 214.101C76.4565 210.624 77.6533 206.177 81.1475 204.161C84.6097 202.156 89.0871 203.351 91.096 206.827C93.1156 210.315 91.9295 214.752 88.4353 216.757" fill="#E53750"/>
<path d="M106.644 220.159C103.813 222.334 99.752 221.801 97.5721 218.975C95.3922 216.149 95.9265 212.096 98.7689 209.92C101.601 207.745 105.661 208.278 107.841 211.115C110.01 213.941 109.487 217.994 106.644 220.159Z" fill="#00ACB0"/>
<path d="M165.352 201.729C164.678 203.35 162.819 204.129 161.184 203.446C159.56 202.775 158.78 200.919 159.453 199.298C160.126 197.677 161.996 196.898 163.62 197.581C165.245 198.253 166.014 200.108 165.341 201.74" fill="#E53750"/>
<path d="M139.942 216.618C138.318 218.73 135.294 219.124 133.167 217.503C131.051 215.882 130.656 212.864 132.28 210.752C133.905 208.64 136.929 208.235 139.044 209.867C141.16 211.488 141.566 214.517 139.942 216.618Z" fill="#233D8D"/>
<path d="M153.864 210.368C152.753 212.277 150.306 212.939 148.393 211.829C146.47 210.72 145.818 208.278 146.929 206.358C148.03 204.449 150.488 203.788 152.401 204.897C154.324 205.996 154.976 208.449 153.864 210.358M124.03 220.01C121.818 222.217 118.249 222.217 116.037 220.01C113.835 217.813 113.835 214.24 116.037 212.043C118.238 209.846 121.818 209.835 124.019 212.043C126.231 214.24 126.231 217.813 124.019 220.01M183.945 191.907C183.945 193.208 182.887 194.264 181.573 194.264C180.269 194.264 179.211 193.208 179.201 191.896C179.201 190.585 180.258 189.529 181.573 189.529C182.876 189.529 183.945 190.585 183.934 191.896" fill="#FECC38"/>
<path d="M81.3938 238.652C78.5514 241.5 73.9244 241.5 71.082 238.652C68.2396 235.815 68.2396 231.208 71.082 228.36C73.9138 225.523 78.5407 225.523 81.3725 228.36C84.2256 231.208 84.2256 235.805 81.3725 238.641" fill="#E53750"/>
<path d="M107.477 243.558C105.308 246.384 101.247 246.928 98.4047 244.752C95.5729 242.587 95.0387 238.535 97.2079 235.698C99.3771 232.872 103.438 232.328 106.28 234.503C109.112 236.679 109.646 240.721 107.466 243.547M178.527 204.257C178.302 205.996 176.7 207.222 174.947 206.998C173.195 206.774 171.966 205.174 172.201 203.436C172.425 201.698 174.028 200.46 175.781 200.695C177.522 200.919 178.751 202.519 178.527 204.268" fill="#233D8D"/>
<path d="M157.851 225.214C156.825 227.667 154.004 228.84 151.546 227.827C149.078 226.814 147.913 223.988 148.939 221.535C149.954 219.071 152.786 217.909 155.244 218.932C157.712 219.946 158.887 222.772 157.862 225.225" fill="#26BCEC"/>
<path d="M169.681 215.573C169.103 217.706 166.913 218.975 164.776 218.399C162.628 217.834 161.367 215.637 161.944 213.504C162.51 211.371 164.722 210.102 166.849 210.678C168.986 211.243 170.258 213.44 169.681 215.573ZM49.9353 269.73C49.3583 271.863 47.1677 273.132 45.0305 272.556C42.8827 271.991 41.6218 269.794 42.1881 267.661C42.7651 265.528 44.9664 264.259 47.0929 264.835C49.2301 265.4 50.5017 267.597 49.9246 269.73M143.351 232.605C141.791 235.303 138.339 236.231 135.636 234.674C132.932 233.117 132.013 229.672 133.573 226.974C135.133 224.276 138.585 223.348 141.288 224.916C143.992 226.473 144.921 229.917 143.361 232.605M193.969 189.977C194.311 191.235 193.553 192.526 192.292 192.867C191.031 193.208 189.727 192.451 189.396 191.193C189.054 189.934 189.813 188.633 191.074 188.302C192.334 187.961 193.638 188.708 193.969 189.977Z" fill="#00ACB0"/>
<path d="M132.845 254.714C130.836 258.19 126.37 259.396 122.886 257.38C119.403 255.375 118.216 250.927 120.225 247.44C122.224 243.974 126.69 242.769 130.174 244.784C133.668 246.789 134.865 251.237 132.845 254.714Z" fill="#26BCEC"/>
<path d="M150.338 248.56C148.981 251.855 145.198 253.423 141.896 252.058C138.594 250.693 137.034 246.918 138.402 243.622C139.759 240.326 143.552 238.759 146.854 240.135C150.156 241.5 151.727 245.275 150.349 248.56" fill="#233D8D"/>
<path d="M191.939 203.308C192.174 205.046 190.945 206.646 189.192 206.87C187.451 207.105 185.848 205.878 185.613 204.129C185.388 202.391 186.606 200.791 188.359 200.556C190.101 200.322 191.703 201.548 191.928 203.297" fill="#26BCEC"/>
<path d="M177.385 228.883C177.032 231.517 174.617 233.373 171.967 233.031C169.317 232.69 167.468 230.258 167.81 227.624C168.152 224.99 170.578 223.124 173.228 223.475C175.878 223.817 177.737 226.238 177.385 228.883Z" fill="#FECC38"/>
<path d="M186.318 216.522C186.318 218.73 184.523 220.521 182.311 220.521C180.099 220.521 178.303 218.73 178.303 216.522C178.303 214.314 180.099 212.523 182.311 212.523C184.523 212.523 186.318 214.314 186.318 216.522ZM165.309 239.761C164.497 242.769 161.409 244.55 158.385 243.75C155.372 242.95 153.587 239.857 154.399 236.85C155.201 233.842 158.3 232.05 161.313 232.861C164.326 233.671 166.122 236.754 165.309 239.761ZM203.137 185.519C203.789 186.649 203.404 188.089 202.272 188.75C201.139 189.401 199.696 189.017 199.034 187.886C198.382 186.756 198.767 185.305 199.899 184.655C201.032 184.004 202.475 184.388 203.137 185.519Z" fill="#E53750"/>
<path d="M160.886 263.843C159.849 267.725 155.853 270.028 151.963 268.994C148.084 267.949 145.776 263.971 146.812 260.078C147.838 256.207 151.845 253.903 155.724 254.937C159.614 255.983 161.922 259.961 160.875 263.843" fill="#FECC38"/>
<path d="M176.177 253.381C175.717 256.911 172.469 259.406 168.921 258.937C165.384 258.468 162.884 255.226 163.354 251.695C163.813 248.165 167.072 245.67 170.609 246.139C174.146 246.608 176.647 249.84 176.177 253.381Z" fill="#26BCEC"/>
<path d="M204.634 198.925C205.307 200.546 204.537 202.412 202.913 203.073C201.289 203.745 199.419 202.977 198.746 201.356C198.072 199.735 198.842 197.869 200.466 197.197C202.09 196.525 203.96 197.293 204.634 198.914" fill="#FECC38"/>
<path d="M197.206 227.379C197.548 230.013 195.7 232.434 193.049 232.786C190.399 233.138 187.984 231.272 187.632 228.638C187.279 226.003 189.138 223.572 191.789 223.23C194.428 222.878 196.864 224.734 197.206 227.379Z" fill="#00ACB0"/>
<path d="M202.624 213.13C203.19 215.263 201.929 217.46 199.792 218.026C197.655 218.602 195.464 217.332 194.877 215.199C194.3 213.066 195.571 210.869 197.708 210.304C199.846 209.728 202.047 210.997 202.613 213.13M188.348 241.009C188.348 244.123 185.826 246.651 182.695 246.651C179.575 246.651 177.053 244.134 177.053 241.02C177.053 237.905 179.585 235.378 182.695 235.388C185.815 235.388 188.348 237.905 188.348 241.02M210.82 178.853C211.739 179.781 211.739 181.274 210.82 182.191C209.901 183.108 208.394 183.108 207.465 182.191C206.535 181.263 206.546 179.77 207.465 178.842C208.394 177.925 209.89 177.914 210.809 178.842" fill="#233D8D"/>
<path d="M190.324 265.411C190.324 269.431 187.065 272.695 183.037 272.695C179.019 272.695 175.76 269.442 175.749 265.411C175.738 261.411 179.008 258.137 183.026 258.148C187.055 258.148 190.325 261.39 190.314 265.411" fill="#00ACB0"/>
<path d="M202.389 251.354C202.859 254.884 200.369 258.126 196.821 258.596C193.284 259.065 190.036 256.569 189.566 253.039C189.096 249.509 191.585 246.256 195.133 245.798C198.681 245.339 201.929 247.813 202.389 251.354Z" fill="#FECC38"/>
<path d="M215.757 191.406C216.826 192.792 216.569 194.797 215.169 195.864C213.77 196.941 211.771 196.674 210.703 195.277C209.634 193.891 209.891 191.886 211.29 190.819C212.69 189.753 214.689 190.009 215.757 191.406Z" fill="#00ACB0"/>
<path d="M215.961 220.809C216.976 223.273 215.811 226.089 213.343 227.102C210.885 228.126 208.053 226.953 207.038 224.489C206.012 222.036 207.188 219.21 209.645 218.196C212.114 217.183 214.935 218.346 215.961 220.799" fill="#E53750"/>
<path d="M217.499 205.654C218.599 207.574 217.947 210.016 216.035 211.115C214.111 212.224 211.664 211.563 210.553 209.654C209.442 207.745 210.104 205.292 212.017 204.193C213.93 203.084 216.387 203.745 217.488 205.654M210.938 236.263C211.75 239.271 209.954 242.363 206.941 243.174C203.928 243.985 200.839 242.193 200.027 239.185C199.215 236.178 201.01 233.085 204.024 232.285C207.037 231.474 210.136 233.256 210.938 236.263Z" fill="#26BCEC"/>
<path d="M219.187 259.321C220.234 263.203 217.926 267.192 214.036 268.237C210.147 269.271 206.161 266.978 205.114 263.086C204.066 259.225 206.375 255.226 210.264 254.191C214.154 253.146 218.15 255.439 219.187 259.321Z" fill="#E53750"/>
<path d="M227.191 242.63C228.559 245.926 226.999 249.701 223.697 251.066C220.406 252.431 216.612 250.864 215.244 247.568C213.877 244.283 215.437 240.497 218.749 239.132C222.051 237.767 225.834 239.324 227.191 242.63Z" fill="#00ACB0"/>
<path d="M224.552 181.274C225.952 182.34 226.219 184.335 225.14 185.732C224.071 187.129 222.073 187.396 220.673 186.318C219.273 185.252 219.006 183.247 220.085 181.861C221.154 180.463 223.152 180.207 224.552 181.274Z" fill="#E53750"/>
<path d="M232.374 209.622C233.998 211.733 233.603 214.752 231.487 216.383C229.371 218.004 226.336 217.599 224.723 215.487C223.098 213.376 223.494 210.347 225.61 208.736C227.725 207.115 230.76 207.51 232.374 209.622Z" fill="#233D8D"/>
<path d="M229.927 194.584C231.487 196.152 231.498 198.679 229.927 200.237C228.367 201.804 225.835 201.804 224.264 200.237C222.693 198.679 222.693 196.141 224.264 194.584C225.824 193.016 228.367 193.016 229.927 194.584ZM231.541 225.843C233.101 228.542 232.182 231.986 229.468 233.543C226.775 235.101 223.313 234.173 221.753 231.485C220.193 228.798 221.112 225.342 223.815 223.785C226.519 222.228 229.97 223.145 231.53 225.843" fill="#FECC38"/>
<path d="M245.475 245.99C247.494 249.466 246.297 253.924 242.814 255.929C239.33 257.934 234.874 256.74 232.855 253.263C230.835 249.808 232.032 245.339 235.526 243.334C239.02 241.318 243.466 242.502 245.475 245.99Z" fill="#233D8D"/>
<path d="M248.883 227.795C251.063 230.621 250.529 234.674 247.697 236.85C244.865 239.015 240.805 238.492 238.625 235.655C236.445 232.839 236.979 228.776 239.822 226.611C242.653 224.446 246.714 224.969 248.883 227.806" fill="#E53750"/>
<path d="M245.324 194.573C247.44 196.194 247.836 199.213 246.211 201.335C244.587 203.447 241.563 203.841 239.447 202.22C237.331 200.599 236.925 197.57 238.56 195.469C240.185 193.357 243.219 192.952 245.324 194.573Z" fill="#26BCEC"/>
<path d="M248.733 210.454C250.945 212.661 250.945 216.223 248.733 218.431C246.532 220.628 242.952 220.628 240.751 218.431C238.549 216.234 238.539 212.651 240.751 210.464C242.952 208.257 246.532 208.257 248.733 210.464" fill="#00ACB0"/>
<path d="M267.412 226.323C270.265 229.16 270.265 233.767 267.412 236.615C264.57 239.452 259.954 239.452 257.101 236.615C254.258 233.789 254.258 229.171 257.101 226.334C259.954 223.486 264.559 223.486 267.402 226.334" fill="#26BCEC"/>
<path d="M265.981 207.872C268.813 210.038 269.358 214.09 267.178 216.916C265.009 219.743 260.948 220.276 258.106 218.111C255.274 215.946 254.729 211.893 256.909 209.056C259.089 206.23 263.139 205.697 265.97 207.872" fill="#233D8D"/>
<path d="M207.486 123.821C208.405 122.904 209.912 122.904 210.831 123.821C211.75 124.749 211.75 126.242 210.831 127.17C209.901 128.098 208.405 128.098 207.475 127.17C206.556 126.242 206.546 124.749 207.475 123.832" fill="#FECC38"/>
<path d="M220.074 118.905C221.463 117.838 223.472 118.094 224.541 119.491C225.62 120.888 225.353 122.883 223.953 123.949C222.564 125.016 220.555 124.76 219.487 123.363C218.407 121.966 218.674 119.971 220.074 118.905Z" fill="#233D8D"/>
<path d="M199.034 118.126C199.686 116.996 201.139 116.612 202.272 117.262C203.404 117.913 203.789 119.363 203.137 120.494C202.485 121.624 201.032 122.008 199.899 121.358C198.767 120.707 198.382 119.257 199.034 118.126Z" fill="#00ACB0"/>
<path d="M209.913 110.128C210.981 108.73 212.979 108.464 214.379 109.541C215.779 110.607 216.046 112.602 214.967 113.999C213.898 115.396 211.89 115.663 210.5 114.585C209.101 113.519 208.844 111.525 209.913 110.128Z" fill="#26BCEC"/>
<path d="M238.325 102.321C240.441 100.7 243.465 101.094 245.1 103.216C246.725 105.328 246.318 108.346 244.203 109.967C242.087 111.589 239.052 111.194 237.439 109.082C235.814 106.971 236.21 103.942 238.325 102.321Z" fill="#FECC38"/>
<path d="M223.248 104.763C224.819 103.206 227.352 103.195 228.912 104.763C230.483 106.32 230.483 108.858 228.912 110.415C227.352 111.983 224.809 111.983 223.248 110.415C221.678 108.858 221.678 106.32 223.248 104.763Z" fill="#E53750"/>
<path d="M331.901 119.353H310.722V139.072H333.013C334.242 139.072 334.861 139.606 334.861 140.683V145.589C334.861 146.783 334.242 147.37 333.013 147.37H303.082C301.917 147.37 301.329 146.783 301.329 145.589V86.3337C301.329 85.2032 301.917 84.638 303.082 84.638H332.735C333.964 84.638 334.573 85.2032 334.573 86.3337V91.2397C334.573 92.4341 333.953 93.0207 332.735 93.0207H310.722V111.311H331.901C333.002 111.311 333.558 111.909 333.558 113.092V117.55C333.558 118.745 333.002 119.331 331.901 119.331M368.618 130.391C367.859 130.391 367.261 130.028 366.823 129.303L352.514 101.649V145.557C352.514 146.751 351.959 147.338 350.858 147.338H344.959C343.795 147.338 343.207 146.741 343.207 145.557V86.3017C343.207 85.1712 343.795 84.606 344.959 84.606H350.666C351.713 84.606 352.418 84.9579 352.781 85.6618L368.532 116.1L384.369 85.6725C384.732 84.9579 385.416 84.606 386.388 84.606H392.094C393.259 84.606 393.847 85.1712 393.847 86.3017V145.557C393.847 146.751 393.259 147.338 392.094 147.338H386.196C385.095 147.338 384.54 146.751 384.54 145.557V101.766L370.37 129.367C370.06 130.05 369.462 130.391 368.586 130.391M430.692 130.391C429.933 130.391 429.335 130.028 428.896 129.303L414.588 101.649V145.557C414.588 146.751 414.032 147.338 412.932 147.338H407.033C405.868 147.338 405.281 146.741 405.281 145.557V86.3017C405.281 85.1712 405.858 84.606 407.033 84.606H412.75C413.797 84.606 414.503 84.9579 414.866 85.6618L430.617 116.1L446.453 85.6725C446.816 84.9579 447.5 84.606 448.484 84.606H454.19C455.354 84.606 455.942 85.1712 455.942 86.3017V145.557C455.942 146.751 455.354 147.338 454.19 147.338H448.291C447.191 147.338 446.635 146.751 446.635 145.557V101.766L432.465 129.367C432.156 130.05 431.557 130.391 430.681 130.391M479.686 123.875H495.896L487.882 93.9806H487.7L479.686 123.875ZM483.458 84.606H491.473C492.637 84.606 493.407 85.2032 493.77 86.3871L511.637 145.471C511.818 146.005 511.776 146.453 511.498 146.815C511.22 147.167 510.803 147.349 510.258 147.349H503.9C502.917 147.349 502.244 146.815 501.87 145.738L497.905 131.991H477.357L473.435 145.738C473.189 146.805 472.484 147.338 471.351 147.338H464.801C463.476 147.338 462.973 146.687 463.283 145.386L481.15 86.3017C481.513 85.1606 482.283 84.5953 483.447 84.5953M537.999 148.234C530.871 148.234 525.614 146.474 522.205 142.965C518.796 139.456 517.097 134.135 517.097 126.989V86.2911C517.097 85.1606 517.674 84.5953 518.85 84.5953H524.748C525.977 84.5953 526.586 85.1606 526.586 86.2911V126.178C526.586 130.818 527.473 134.252 529.258 136.481C531.042 138.71 533.959 139.83 538.009 139.83C542.059 139.83 544.976 138.71 546.761 136.481C548.545 134.252 549.432 130.818 549.432 126.178V86.2804C549.432 85.1499 550.009 84.5847 551.185 84.5847H557.169C558.334 84.5847 558.921 85.1499 558.921 86.2804V126.978C558.921 141.141 551.954 148.223 538.009 148.223M603.235 131.447C603.235 136.982 601.397 141.131 597.711 143.893C594.024 146.655 588.874 148.042 582.238 148.042C576.093 148.042 571.274 147.359 567.78 145.994C566.615 145.461 566.124 144.746 566.305 143.85L567.598 139.296C567.897 138.049 568.635 137.665 569.81 138.134C573.123 139.328 576.991 139.915 581.415 139.915C589.579 139.915 593.661 137.025 593.661 131.255C593.661 128.631 592.753 126.466 590.947 124.739C589.141 123.011 586.234 121.08 582.248 118.937L576.457 115.577C574.907 114.671 573.347 113.466 571.787 111.951C570.227 110.437 569.052 108.677 568.293 106.683C567.523 104.688 567.139 102.438 567.139 99.9423C567.139 89.1173 573.678 83.6995 586.758 83.6995C591.855 83.6995 596.087 84.3287 599.474 85.5765C600.703 86.0564 601.194 86.771 600.949 87.7202L599.656 92.1782C599.346 93.3087 598.576 93.6713 597.348 93.2447C594.58 92.3488 591.299 91.9116 587.495 91.9116C583.691 91.9116 580.945 92.5515 579.256 93.8419C577.568 95.1217 576.724 97.2014 576.724 100.07C576.724 101.382 576.97 102.598 577.451 103.696C577.942 104.806 578.786 105.861 580.015 106.875C581.233 107.888 582.313 108.677 583.264 109.232C584.204 109.786 585.625 110.629 587.517 111.738C589.611 112.975 591.257 113.946 592.432 114.639C593.607 115.332 595.007 116.313 596.61 117.55C598.213 118.798 599.41 120.014 600.211 121.198C601.013 122.392 601.718 123.875 602.338 125.656C602.958 127.437 603.267 129.367 603.267 131.447M324.111 212.576C326.943 212.576 329.775 211.979 332.607 210.795C333.643 210.443 334.338 210.859 334.69 212.043L336.165 216.415C336.389 217.194 335.93 217.877 334.776 218.463C331.773 220.127 327.755 220.959 322.722 220.959C314.793 220.959 308.884 218.399 304.984 213.28C301.083 208.161 299.128 199.981 299.128 188.74C299.128 177.499 301.051 169.393 304.898 164.242C308.745 159.101 314.569 156.52 322.38 156.52C326.89 156.52 330.822 157.32 334.177 158.931C335.396 159.464 335.855 160.157 335.567 160.989L334.177 165.362C333.835 166.492 333.141 166.876 332.094 166.524C329.55 165.447 326.772 164.914 323.769 164.914C318.33 164.914 314.398 166.727 311.972 170.353C309.547 173.979 308.328 180.112 308.328 188.74C308.328 197.368 309.568 203.5 312.058 207.126C314.548 210.752 318.565 212.565 324.111 212.565M351.189 207.116C353.305 210.859 356.607 212.736 361.116 212.736C365.626 212.736 368.938 210.859 371.054 207.116C373.159 203.361 374.217 197.272 374.217 188.825C374.217 180.378 373.159 174.171 371.054 170.396C368.938 166.62 365.636 164.733 361.116 164.733C356.596 164.733 353.294 166.62 351.189 170.396C349.073 174.171 348.026 180.314 348.026 188.825C348.026 197.336 349.084 203.372 351.189 207.116ZM344.511 164.274C348.24 159.101 353.775 156.51 361.116 156.51C368.457 156.51 373.993 159.101 377.733 164.274C381.473 169.447 383.321 177.627 383.321 188.814C383.321 200.002 381.462 208.15 377.733 213.269C374.003 218.388 368.436 220.948 361.042 220.948C353.647 220.948 348.251 218.378 344.521 213.227C340.792 208.086 338.933 199.949 338.933 188.814C338.933 177.68 340.803 169.447 344.532 164.274M431.514 159.005V218.357C431.514 219.551 430.937 220.138 429.773 220.138H424.291C423.244 220.138 422.528 219.7 422.122 218.815L400.034 174.182V218.357C400.034 219.551 399.51 220.138 398.474 220.138H393.013C391.913 220.138 391.368 219.551 391.368 218.357V159.101C391.368 157.971 391.913 157.406 393.003 157.406H398.431C399.521 157.406 400.269 157.832 400.675 158.685L422.773 203.521V159.101C422.773 157.971 423.318 157.395 424.419 157.395H429.794C430.948 157.395 431.525 157.928 431.525 159.005M481.599 159.005V218.357C481.599 219.551 481.022 220.138 479.857 220.138H474.375C473.328 220.138 472.612 219.7 472.206 218.815L450.108 174.182V218.357C450.108 219.551 449.584 220.138 448.548 220.138H443.087C441.987 220.138 441.442 219.551 441.442 218.357V159.101C441.442 157.971 441.987 157.406 443.076 157.406H448.505C449.595 157.406 450.343 157.832 450.749 158.685L472.847 203.521V159.101C472.847 157.971 473.392 157.395 474.493 157.395H479.868C481.022 157.395 481.599 157.928 481.599 159.005ZM520.314 192.11H500.363V211.829H521.35C522.504 211.829 523.081 212.363 523.081 213.44V218.346C523.081 219.54 522.504 220.127 521.35 220.127H493.161C492.06 220.127 491.515 219.54 491.515 218.346V159.091C491.515 157.96 492.06 157.395 493.161 157.395H521.083C522.237 157.395 522.814 157.96 522.814 159.091V163.997C522.814 165.191 522.237 165.778 521.072 165.778H500.342V184.068H520.292C521.329 184.068 521.852 184.666 521.852 185.849V190.307C521.852 191.502 521.329 192.088 520.292 192.088M553.386 212.523C556.218 212.523 559.05 211.925 561.881 210.742C562.918 210.39 563.612 210.806 563.965 211.989L565.44 216.362C565.675 217.141 565.205 217.823 564.051 218.41C561.048 220.074 557.019 220.905 551.997 220.905C544.079 220.905 538.159 218.346 534.258 213.227C530.358 208.107 528.403 199.927 528.403 188.686C528.403 177.445 530.326 169.34 534.173 164.189C538.02 159.048 543.844 156.467 551.655 156.467C556.164 156.467 560.097 157.267 563.452 158.877C564.67 159.411 565.13 160.104 564.841 160.936L563.452 165.308C563.099 166.439 562.416 166.823 561.368 166.471C558.825 165.394 556.047 164.861 553.044 164.861C547.605 164.861 543.673 166.674 541.247 170.3C538.821 173.926 537.603 180.058 537.603 188.686C537.603 197.314 538.843 203.447 541.333 207.073C543.822 210.699 547.84 212.512 553.386 212.512M569.992 164.135V159.048C569.992 157.918 570.537 157.352 571.637 157.352H604.08C605.234 157.352 605.811 157.918 605.811 159.048V164.135C605.811 165.266 605.234 165.831 604.08 165.831H592.368V218.303C592.368 219.498 591.791 220.084 590.637 220.084H585.08C583.98 220.084 583.435 219.487 583.435 218.303V165.831H571.637C570.537 165.831 569.992 165.266 569.992 164.135Z" fill="#272350"/>
<path d="M525.892 71.8717C525.892 69.4081 527.901 67.4031 530.369 67.4031C532.837 67.4031 534.846 69.4081 534.846 71.8717C534.846 74.3354 532.837 76.3404 530.369 76.3404C527.901 76.3404 525.892 74.3354 525.892 71.8717ZM541.268 71.8717C541.268 69.4081 543.277 67.4031 545.746 67.4031C548.214 67.4031 550.223 69.4081 550.223 71.8717C550.223 74.3354 548.214 76.3404 545.746 76.3404C543.277 76.3404 541.268 74.3354 541.268 71.8717Z" fill="#E53750"/>
</g>
<defs>
<clipPath id="clip0_101_1281">
<rect width="605.811" height="305.618" fill="white"/>
</clipPath>
</defs>
</svg>
